<?xml version="1.0" encoding="UTF-8"?><svg xmlns="http://www.w3.org/2000/svg" xmlns:xlink="http://www.w3.org/1999/xlink" viewBox="0 0 1275.3 186.92"><defs><style>.f{fill:url(#e);}.g{fill:url(#c);}.h,.i{fill:red;}.i{stroke:#fff;}.i,.j{stroke-miterlimit:10;stroke-width:12px;}.j{fill:#fff;stroke:red;}</style><linearGradient id="c" x1="832.98" y1="37.75" x2="906.45" y2="37.75" gradientTransform="translate(281.43 -603.92) rotate(45)" gradientUnits="userSpaceOnUse"><stop offset=".5" stop-color="#fff"/><stop offset=".5" stop-color="#e9edff"/><stop offset=".5" stop-color="#b2beff"/><stop offset=".5" stop-color="#5a74ff"/><stop offset=".5" stop-color="#3454ff"/></linearGradient><linearGradient id="e" x1="624.38" y1="244.93" x2="697.85" y2="244.93" xlink:href="#c"/></defs><g id="a"><g><path class="i" d="M100.96,180.92L58.97,77.92l-16.94,103.01H7.24L40.18,6h21.81l47.09,115.07L157.8,6h21.58l30.16,174.92h-35.26l-15.31-102.77-43.61,102.77h-14.38Z"/><path class="i" d="M240.39,180.92V6h101.61v30.16h-66.81v35.96h64.26v29.7h-64.26v48.95h67.28v30.16h-102.08Z"/><path class="i" d="M382.38,180.92V6h43.62c59.85,0,99.53,31.55,99.53,88.16s-38.28,86.77-96.28,86.77h-46.86Zm34.8-31.32h10.44c38.28,0,62.64-19.49,62.64-55.68s-20.42-55.91-62.64-55.91h-10.44v111.59Z"/><path class="i" d="M558.92,180.92V92.02h33.64v88.91h-33.64Z"/><path class="j" d="M714.59,180.92l-41.99-103.01-16.94,103.01h-34.8L653.81,6h21.81l47.09,115.07L771.43,6h21.58l30.16,174.92h-35.26l-15.31-102.77-43.62,102.77h-14.38Z"/><path class="j" d="M851.47,180.92V92.02h33.64v88.91h-33.64Z"/><path class="j" d="M1049.6,6h34.34V180.92h-23.43l-101.85-116.69,.7,116.69h-34.33V6h23.66l101.85,116.93-.93-116.93Z"/><path class="j" d="M1126.16,180.92V6h43.61c59.86,0,99.53,31.55,99.53,88.16s-38.28,86.77-96.28,86.77h-46.86Zm34.8-31.32h10.44c38.28,0,62.64-19.49,62.64-55.68s-20.42-55.91-62.64-55.91h-10.44v111.59Z"/></g></g><g id="b"><circle class="g" cx="869.71" cy="37.75" r="36.73"/><path class="h" d="M869.71,1.02c-20.26,0-36.73,16.48-36.73,36.73s16.48,36.73,36.73,36.73,36.73-16.48,36.73-36.73S889.97,1.02,869.71,1.02Zm-34.11,36.73c0-18.81,15.3-34.11,34.11-34.11,8.93,0,17.07,3.45,23.16,9.09l-48.18,48.18c-5.64-6.09-9.09-14.23-9.09-23.16Zm34.11,34.11c-8.93,0-17.07-3.45-23.16-9.09l48.18-48.18c5.64,6.09,9.09,14.23,9.09,23.16,0,18.81-15.3,34.11-34.11,34.11Z"/><path class="h" d="M869.71,8.89c-15.92,0-28.86,12.95-28.86,28.86,0,.72,.59,1.31,1.31,1.31s1.31-.59,1.31-1.31c0-14.47,11.77-26.24,26.24-26.24,.72,0,1.31-.59,1.31-1.31s-.59-1.31-1.31-1.31Z"/><path class="h" d="M897.27,36.44c-.72,0-1.31,.59-1.31,1.31,0,14.47-11.77,26.24-26.24,26.24-.72,0-1.31,.59-1.31,1.31s.59,1.31,1.31,1.31c15.92,0,28.86-12.95,28.86-28.86,0-.72-.59-1.31-1.31-1.31Z"/></g><g id="d"><circle class="f" cx="575.71" cy="36.75" r="36.73"/><path class="h" d="M575.71,.02c-20.26,0-36.73,16.48-36.73,36.73s16.48,36.73,36.73,36.73,36.73-16.48,36.73-36.73S595.97,.02,575.71,.02Zm-34.11,36.73c0-18.81,15.3-34.11,34.11-34.11,8.93,0,17.07,3.45,23.16,9.09l-48.18,48.18c-5.64-6.09-9.09-14.23-9.09-23.16Zm34.11,34.11c-8.93,0-17.07-3.45-23.16-9.09l48.18-48.18c5.64,6.09,9.09,14.23,9.09,23.16,0,18.81-15.3,34.11-34.11,34.11Z"/><path class="h" d="M575.71,7.89c-15.92,0-28.86,12.95-28.86,28.86,0,.72,.59,1.31,1.31,1.31s1.31-.59,1.31-1.31c0-14.47,11.77-26.24,26.24-26.24,.72,0,1.31-.59,1.31-1.31s-.59-1.31-1.31-1.31Z"/><path class="h" d="M603.27,35.44c-.72,0-1.31,.59-1.31,1.31,0,14.47-11.77,26.24-26.24,26.24-.72,0-1.31,.59-1.31,1.31s.59,1.31,1.31,1.31c15.92,0,28.86-12.95,28.86-28.86,0-.72-.59-1.31-1.31-1.31Z"/></g></svg>